<svg width="138" height="41" viewBox="0 0 138 41" fill="none" xmlns="http://www.w3.org/2000/svg">
<g filter="url(#filter0_b_1503_534)">
<path fill-rule="evenodd" clip-rule="evenodd" d="M6.2647 25.0665L6.2647 24.1783C6.18068 23.767 6.44421 23.3245 7.05529 23.1091L15.7311 20.0512C16.4834 19.786 17.3689 19.786 18.1212 20.0512L26.797 23.1091C27.3654 23.3094 27.6331 23.7063 27.6001 24.0918L27.6001 25.153C27.6331 25.5385 27.3654 25.9354 26.797 26.1357L18.1212 29.1937C17.3689 29.4588 16.4834 29.4588 15.7311 29.1937L7.05529 26.1357C6.44421 25.9204 6.18068 25.4778 6.2647 25.0665Z" fill="#54ABFF"/>
<path fill-rule="evenodd" clip-rule="evenodd" d="M6.2647 25.0665L6.2647 24.1783C6.18068 23.767 6.44421 23.3245 7.05529 23.1091L15.7311 20.0512C16.4834 19.786 17.3689 19.786 18.1212 20.0512L26.797 23.1091C27.3654 23.3094 27.6331 23.7063 27.6001 24.0918L27.6001 25.153C27.6331 25.5385 27.3654 25.9354 26.797 26.1357L18.1212 29.1937C17.3689 29.4588 16.4834 29.4588 15.7311 29.1937L7.05529 26.1357C6.44421 25.9204 6.18068 25.4778 6.2647 25.0665Z" fill="url(#paint0_radial_1503_534)" fill-opacity="0.8"/>
<path d="M6.27041 25.0677L6.27053 25.0677L6.27053 25.0665L6.27053 24.1783H6.27065L6.27042 24.1772C6.18717 23.7696 6.44794 23.3294 7.05722 23.1146L15.733 20.0567C16.4841 19.7919 17.3682 19.7919 18.1193 20.0567L26.7951 23.1146C27.3618 23.3144 27.627 23.7093 27.5943 24.0913L27.5943 24.0913V24.0918L27.5943 25.153L27.5943 25.1535C27.627 25.5355 27.3618 25.9305 26.7951 26.1302L18.1193 29.1882C17.3682 29.4529 16.4841 29.4529 15.733 29.1882L7.05723 26.1302C6.44794 25.9155 6.18716 25.4752 6.27041 25.0677Z" stroke="#67B1F9" stroke-opacity="0.8" stroke-width="0.0116685"/>
</g>
<g style="mix-blend-mode:color-burn">
<path fill-rule="evenodd" clip-rule="evenodd" d="M6.2647 22.2381L6.2647 21.35C6.18068 20.9387 6.44421 20.4961 7.05529 20.2807L15.7311 17.2228C16.4834 16.9576 17.3689 16.9576 18.1212 17.2228L26.797 20.2807C27.3654 20.4811 27.6331 20.878 27.6001 21.2634L27.6001 22.3247C27.6331 22.7101 27.3654 23.107 26.797 23.3074L18.1212 26.3653C17.3689 26.6305 16.4834 26.6305 15.7311 26.3653L7.05529 23.3074C6.44421 23.092 6.18068 22.6494 6.2647 22.2381Z" fill="url(#paint1_radial_1503_534)"/>
<path fill-rule="evenodd" clip-rule="evenodd" d="M6.2647 22.2381L6.2647 21.35C6.18068 20.9387 6.44421 20.4961 7.05529 20.2807L15.7311 17.2228C16.4834 16.9576 17.3689 16.9576 18.1212 17.2228L26.797 20.2807C27.3654 20.4811 27.6331 20.878 27.6001 21.2634L27.6001 22.3247C27.6331 22.7101 27.3654 23.107 26.797 23.3074L18.1212 26.3653C17.3689 26.6305 16.4834 26.6305 15.7311 26.3653L7.05529 23.3074C6.44421 23.092 6.18068 22.6494 6.2647 22.2381Z" fill="url(#paint2_radial_1503_534)"/>
</g>
<g filter="url(#filter1_b_1503_534)">
<path fill-rule="evenodd" clip-rule="evenodd" d="M6.2647 21.1878L6.2647 20.2997C6.18068 19.8884 6.44421 19.4458 7.05529 19.2304L15.7311 16.1725C16.4834 15.9073 17.3689 15.9073 18.1212 16.1725L26.797 19.2304C27.3654 19.4308 27.6331 19.8277 27.6001 20.2132L27.6001 21.2744C27.6331 21.6598 27.3654 22.0567 26.797 22.2571L18.1212 25.315C17.3689 25.5802 16.4834 25.5802 15.7311 25.315L7.05529 22.2571C6.44421 22.0417 6.18068 21.5992 6.2647 21.1878Z" fill="#693DFC" fill-opacity="0.8"/>
<path fill-rule="evenodd" clip-rule="evenodd" d="M6.2647 21.1878L6.2647 20.2997C6.18068 19.8884 6.44421 19.4458 7.05529 19.2304L15.7311 16.1725C16.4834 15.9073 17.3689 15.9073 18.1212 16.1725L26.797 19.2304C27.3654 19.4308 27.6331 19.8277 27.6001 20.2132L27.6001 21.2744C27.6331 21.6598 27.3654 22.0567 26.797 22.2571L18.1212 25.315C17.3689 25.5802 16.4834 25.5802 15.7311 25.315L7.05529 22.2571C6.44421 22.0417 6.18068 21.5992 6.2647 21.1878Z" fill="url(#paint3_radial_1503_534)" fill-opacity="0.8"/>
<path d="M6.27041 21.189L6.27053 21.189L6.27053 21.1878L6.27053 20.2997H6.27065L6.27042 20.2985C6.18717 19.8909 6.44794 19.4507 7.05722 19.2359L15.733 16.178C16.4841 15.9133 17.3682 15.9133 18.1193 16.178L26.7951 19.2359C27.3618 19.4357 27.627 19.8306 27.5943 20.2127L27.5943 20.2127V20.2132L27.5943 21.2744L27.5943 21.2749C27.627 21.6569 27.3618 22.0518 26.7951 22.2516L18.1193 25.3095C17.3682 25.5742 16.4841 25.5742 15.733 25.3095L7.05723 22.2516C6.44794 22.0368 6.18716 21.5966 6.27041 21.189Z" stroke="#4D1DEA" stroke-opacity="0.8" stroke-width="0.0116685"/>
</g>
<g style="mix-blend-mode:color-burn">
<path fill-rule="evenodd" clip-rule="evenodd" d="M6.2647 18.0372L6.2647 17.149C6.18068 16.7377 6.44421 16.2952 7.05529 16.0798L15.7311 13.0219C16.4834 12.7567 17.3689 12.7567 18.1212 13.0219L26.797 16.0798C27.3654 16.2802 27.6331 16.677 27.6001 17.0625L27.6001 18.1237C27.6331 18.5092 27.3654 18.9061 26.797 19.1064L18.1212 22.1644C17.3689 22.4295 16.4834 22.4295 15.7311 22.1644L7.05529 19.1064C6.44421 18.8911 6.18068 18.4485 6.2647 18.0372Z" fill="url(#paint4_radial_1503_534)"/>
<path fill-rule="evenodd" clip-rule="evenodd" d="M6.2647 18.0372L6.2647 17.149C6.18068 16.7377 6.44421 16.2952 7.05529 16.0798L15.7311 13.0219C16.4834 12.7567 17.3689 12.7567 18.1212 13.0219L26.797 16.0798C27.3654 16.2802 27.6331 16.677 27.6001 17.0625L27.6001 18.1237C27.6331 18.5092 27.3654 18.9061 26.797 19.1064L18.1212 22.1644C17.3689 22.4295 16.4834 22.4295 15.7311 22.1644L7.05529 19.1064C6.44421 18.8911 6.18068 18.4485 6.2647 18.0372Z" fill="url(#paint5_radial_1503_534)"/>
</g>
<g filter="url(#filter2_b_1503_534)">
<path fill-rule="evenodd" clip-rule="evenodd" d="M6.2647 16.9872L6.2647 16.099C6.18068 15.6877 6.44421 15.2451 7.05529 15.0298L15.7311 11.9718C16.4834 11.7067 17.3689 11.7067 18.1212 11.9718L26.797 15.0298C27.3654 15.2301 27.6331 15.627 27.6001 16.0125L27.6001 17.0737C27.6331 17.4592 27.3654 17.856 26.797 18.0564L18.1212 21.1143C17.3689 21.3795 16.4834 21.3795 15.7311 21.1143L7.05529 18.0564C6.44421 17.841 6.18068 17.3985 6.2647 16.9872Z" fill="#FFB155" fill-opacity="0.8"/>
<path fill-rule="evenodd" clip-rule="evenodd" d="M6.2647 16.9872L6.2647 16.099C6.18068 15.6877 6.44421 15.2451 7.05529 15.0298L15.7311 11.9718C16.4834 11.7067 17.3689 11.7067 18.1212 11.9718L26.797 15.0298C27.3654 15.2301 27.6331 15.627 27.6001 16.0125L27.6001 17.0737C27.6331 17.4592 27.3654 17.856 26.797 18.0564L18.1212 21.1143C17.3689 21.3795 16.4834 21.3795 15.7311 21.1143L7.05529 18.0564C6.44421 17.841 6.18068 17.3985 6.2647 16.9872Z" fill="url(#paint6_radial_1503_534)" fill-opacity="0.8"/>
<path d="M6.27041 16.9883L6.27053 16.9884L6.27053 16.9872L6.27053 16.099H6.27065L6.27042 16.0978C6.18717 15.6903 6.44794 15.25 7.05722 15.0353L15.733 11.9773C16.4841 11.7126 17.3682 11.7126 18.1193 11.9773L26.7951 15.0353C27.3618 15.235 27.627 15.6299 27.5943 16.012L27.5943 16.012V16.0125L27.5943 17.0737L27.5943 17.0742C27.627 17.4562 27.3618 17.8511 26.7951 18.0509L18.1193 21.1088C17.3682 21.3736 16.4841 21.3736 15.733 21.1088L7.05723 18.0509C6.44794 17.8361 6.18716 17.3959 6.27041 16.9883Z" stroke="#FFE353" stroke-opacity="0.8" stroke-width="0.0116685"/>
</g>
<path fill-rule="evenodd" clip-rule="evenodd" d="M3.84446 27.2375H0.793991C0.355484 27.2375 0 27.593 0 28.0315V29.9314C0 30.3699 0.355484 30.7253 0.793991 30.7253H9.05961C9.28178 30.7253 9.50195 30.7673 9.70855 30.849L13.6795 32.4196C14.3171 32.6717 14.7743 33.2415 14.8823 33.9185L15.9057 40.331C15.9672 40.7164 16.2996 40.9999 16.6898 40.9999H17.0996C17.4898 40.9999 17.8221 40.7164 17.8836 40.331L18.907 33.9185C19.0151 33.2415 19.4723 32.6717 20.1098 32.4196L24.0808 30.849C24.2874 30.7673 24.5076 30.7254 24.7297 30.7254H32.9953C33.4339 30.7254 33.7893 30.3699 33.7893 29.9314V28.0316C33.7893 27.5931 33.4339 27.2376 32.9953 27.2376H29.9449C29.7448 27.2376 29.5463 27.2716 29.3576 27.3382L17.5406 31.5089C17.1226 31.6564 16.6667 31.6564 16.2487 31.5089L4.43169 27.3381C4.24306 27.2716 4.04449 27.2375 3.84446 27.2375Z" fill="url(#paint7_linear_1503_534)"/>
<path fill-rule="evenodd" clip-rule="evenodd" d="M29.9449 13.8835H32.9953C33.4339 13.8835 33.7893 13.5281 33.7893 13.0896V11.1897C33.7893 10.7512 33.4339 10.3957 32.9953 10.3957H24.7297C24.5076 10.3957 24.2874 10.3538 24.0808 10.2721L20.1098 8.70153C19.4723 8.44938 19.0151 7.87959 18.907 7.20258L17.8836 0.790017C17.8221 0.404689 17.4898 0.121158 17.0996 0.121158H16.6898C16.2996 0.121158 15.9672 0.404688 15.9057 0.790016L14.8823 7.20255C14.7743 7.87957 14.3171 8.44936 13.6795 8.7015L9.70855 10.272C9.50195 10.3538 9.28178 10.3957 9.05961 10.3957H0.793991C0.355484 10.3957 0 10.7512 0 11.1897V13.0895C0 13.528 0.355484 13.8835 0.793991 13.8835H3.84446C4.04449 13.8835 4.24306 13.8495 4.43169 13.7829L16.2487 9.61224C16.6667 9.46471 17.1226 9.46471 17.5406 9.61224L29.3576 13.783C29.5463 13.8495 29.7448 13.8835 29.9449 13.8835Z" fill="url(#paint8_linear_1503_534)"/>
<path d="M48.4307 31C47.3706 31 46.5392 30.7194 45.9364 30.1582C45.3544 29.5762 45.0633 28.7967 45.0633 27.8197V18.2166H42.569V15.317H45.0633V10.7648H48.1501V15.317H51.7357V18.2166H48.1501V27.1962C48.1501 27.8405 48.4723 28.1627 49.1166 28.1627H51.7357V31H48.4307ZM61.6274 31.3118C60.2763 31.3118 59.0396 30.9688 57.9171 30.2829C56.8155 29.5969 55.9425 28.6304 55.2981 27.3832C54.6537 26.1361 54.3315 24.7226 54.3315 23.1429C54.3315 21.5632 54.6537 20.1601 55.2981 18.9337C55.9425 17.6866 56.8155 16.72 57.9171 16.0341C59.0396 15.3481 60.2763 15.0052 61.6274 15.0052C63.6229 15.0052 65.2338 15.7743 66.4602 17.3124H66.6161L66.9279 15.317H69.5781V31H66.9279L66.6161 29.0045H66.4602C65.2338 30.5427 63.6229 31.3118 61.6274 31.3118ZM61.9704 28.4433C62.7811 28.4433 63.5294 28.2251 64.2153 27.7886C64.922 27.3521 65.4728 26.7285 65.8678 25.9178C66.2835 25.1072 66.4914 24.1822 66.4914 23.1429C66.4914 22.1036 66.2835 21.189 65.8678 20.3991C65.4728 19.5885 64.922 18.9649 64.2153 18.5284C63.5294 18.0919 62.7811 17.8736 61.9704 17.8736C61.139 17.8736 60.3803 18.0919 59.6943 18.5284C59.0084 18.9649 58.4576 19.5885 58.0418 20.3991C57.6469 21.189 57.4494 22.1036 57.4494 23.1429C57.4494 24.203 57.6469 25.1383 58.0418 25.949C58.4576 26.7389 59.0084 27.3521 59.6943 27.7886C60.3803 28.2251 61.139 28.4433 61.9704 28.4433ZM76.835 31H73.7483V15.317H76.835V31ZM76.9909 12.355H73.6236V9.23706H76.9909V12.355ZM84.268 31H81.1813V9.1747H84.268V22.457L90.7221 15.317H94.4636L87.4171 22.987L94.7753 31H91.0339L84.268 23.5482V31ZM102.912 31.3118C101.706 31.3118 100.625 31.0416 99.669 30.5011C98.7336 29.9399 97.9957 29.1604 97.4553 28.1627C96.9356 27.165 96.6758 26.0218 96.6758 24.733V15.317H99.7625V24.4836C99.7625 25.606 100.126 26.5414 100.854 27.2897C101.581 28.038 102.485 28.4121 103.566 28.4121C104.294 28.4121 104.959 28.2355 105.562 27.8821C106.185 27.5287 106.674 27.0507 107.027 26.4479C107.381 25.8451 107.557 25.1903 107.557 24.4836V15.317H110.644V31H107.994L107.682 29.3787H107.526C107.09 29.8983 106.466 30.3556 105.655 30.7506C104.845 31.1247 103.93 31.3118 102.912 31.3118ZM114.823 31V15.317H117.473L117.785 16.9383H117.941C118.336 16.4394 118.939 15.9925 119.749 15.5976C120.56 15.2026 121.495 15.0052 122.555 15.0052C123.761 15.0052 124.831 15.2858 125.767 15.847C126.723 16.3874 127.461 17.1565 127.98 18.1542C128.521 19.152 128.791 20.2952 128.791 21.5839V31H125.704V21.8334C125.704 20.7109 125.341 19.7756 124.613 19.0273C123.886 18.279 122.981 17.9048 121.901 17.9048C121.173 17.9048 120.498 18.0815 119.874 18.4349C119.271 18.7882 118.793 19.2663 118.44 19.8691C118.086 20.4719 117.91 21.1266 117.91 21.8334V31H114.823Z" fill="#FBFBFB"/>
<path d="M132.997 31V28.6555H135.342V31H132.997Z" fill="#7D58F7"/>
<defs>
<filter id="filter0_b_1503_534" x="6.13278" y="19.7356" width="21.5868" height="9.77365" filterUnits="userSpaceOnUse" color-interpolation-filters="sRGB">
<feFlood flood-opacity="0" result="BackgroundImageFix"/>
<feGaussianBlur in="BackgroundImageFix" stdDeviation="0.0583426"/>
<feComposite in2="SourceAlpha" operator="in" result="effect1_backgroundBlur_1503_534"/>
<feBlend mode="normal" in="SourceGraphic" in2="effect1_backgroundBlur_1503_534" result="shape"/>
</filter>
<filter id="filter1_b_1503_534" x="5.82577" y="15.5499" width="22.2008" height="10.3877" filterUnits="userSpaceOnUse" color-interpolation-filters="sRGB">
<feFlood flood-opacity="0" result="BackgroundImageFix"/>
<feGaussianBlur in="BackgroundImageFix" stdDeviation="0.211846"/>
<feComposite in2="SourceAlpha" operator="in" result="effect1_backgroundBlur_1503_534"/>
<feBlend mode="normal" in="SourceGraphic" in2="effect1_backgroundBlur_1503_534" result="shape"/>
</filter>
<filter id="filter2_b_1503_534" x="5.88614" y="11.4096" width="22.08" height="10.2669" filterUnits="userSpaceOnUse" color-interpolation-filters="sRGB">
<feFlood flood-opacity="0" result="BackgroundImageFix"/>
<feGaussianBlur in="BackgroundImageFix" stdDeviation="0.181663"/>
<feComposite in2="SourceAlpha" operator="in" result="effect1_backgroundBlur_1503_534"/>
<feBlend mode="normal" in="SourceGraphic" in2="effect1_backgroundBlur_1503_534" result="shape"/>
</filter>
<radialGradient id="paint0_radial_1503_534" cx="0" cy="0" r="1" gradientUnits="userSpaceOnUse" gradientTransform="translate(24.6274 24.1416) rotate(175.717) scale(13.2809 3.39814)">
<stop stop-color="#8BF8FF"/>
<stop offset="1" stop-color="#AAD5FF" stop-opacity="0"/>
</radialGradient>
<radialGradient id="paint1_radial_1503_534" cx="0" cy="0" r="1" gradientUnits="userSpaceOnUse" gradientTransform="translate(16.8095 19.1243) rotate(88.8065) scale(8.40315 7.72237)">
<stop stop-color="#333A5C"/>
<stop offset="1" stop-color="#333A5C" stop-opacity="0"/>
</radialGradient>
<radialGradient id="paint2_radial_1503_534" cx="0" cy="0" r="1" gradientUnits="userSpaceOnUse" gradientTransform="translate(16.9262 21.7941) rotate(88.7051) scale(2.5817 10.0497)">
<stop stop-color="#333A5C"/>
<stop offset="1" stop-color="#333A5C" stop-opacity="0"/>
</radialGradient>
<radialGradient id="paint3_radial_1503_534" cx="0" cy="0" r="1" gradientUnits="userSpaceOnUse" gradientTransform="translate(24.3357 20.0576) rotate(179.344) scale(15.2868 7.66305)">
<stop stop-color="#AE96FF"/>
<stop offset="1" stop-color="#AE96FF" stop-opacity="0"/>
</radialGradient>
<radialGradient id="paint4_radial_1503_534" cx="0" cy="0" r="1" gradientUnits="userSpaceOnUse" gradientTransform="translate(16.4594 16.8486) rotate(91.0609) scale(6.30208 7.48681)">
<stop stop-color="#333A5C"/>
<stop offset="1" stop-color="#333A5C" stop-opacity="0"/>
</radialGradient>
<radialGradient id="paint5_radial_1503_534" cx="0" cy="0" r="1" gradientUnits="userSpaceOnUse" gradientTransform="translate(16.9262 17.5931) rotate(88.7051) scale(2.5817 10.0497)">
<stop stop-color="#333A5C"/>
<stop offset="1" stop-color="#333A5C" stop-opacity="0"/>
</radialGradient>
<radialGradient id="paint6_radial_1503_534" cx="0" cy="0" r="1" gradientUnits="userSpaceOnUse" gradientTransform="translate(25.3723 14.2909) rotate(168.829) scale(14.6903 6.12254)">
<stop offset="0.0001" stop-color="#FFF1A6"/>
<stop offset="1" stop-color="#FFEF99" stop-opacity="0"/>
</radialGradient>
<linearGradient id="paint7_linear_1503_534" x1="17.6362" y1="30.4152" x2="39.0326" y2="36.241" gradientUnits="userSpaceOnUse">
<stop stop-color="#7D58F7"/>
<stop offset="1" stop-color="#B099FA"/>
</linearGradient>
<linearGradient id="paint8_linear_1503_534" x1="17.6362" y1="10.7059" x2="38.2911" y2="5.7881" gradientUnits="userSpaceOnUse">
<stop stop-color="#7D58F7"/>
<stop offset="1" stop-color="#B099FA"/>
</linearGradient>
</defs>
</svg>
